<?xml version="1.0" encoding="us-ascii" standalone="no"?><svg xmlns="http://www.w3.org/2000/svg" xmlns:xlink="http://www.w3.org/1999/xlink" contentStyleType="text/css" height="524px" preserveAspectRatio="none" style="width:800px;height:524px;background:#FFFFFF;" version="1.1" viewBox="0 0 800 524" width="800px" zoomAndPan="magnify"><defs/><g><!--entity ep1--><g id="elem_ep1"><polygon fill="#F1F1F1" points="16,471,26,461,175,461,175,497.2969,165,507.2969,16,507.2969,16,471" style="stroke:#181818;stroke-width:0.5;"/><line style="stroke:#181818;stroke-width:0.5;" x1="165" x2="175" y1="471" y2="461"/><line style="stroke:#181818;stroke-width:0.5;" x1="16" x2="165" y1="471" y2="471"/><line style="stroke:#181818;stroke-width:0.5;" x1="165" x2="165" y1="471" y2="507.2969"/><text fill="#000000" font-family="sans-serif" font-size="14" lengthAdjust="spacing" textLength="119" x="31" y="493.9951">Event Producer 1</text></g><!--entity ep2--><g id="elem_ep2"><polygon fill="#F1F1F1" points="285,471,295,461,444,461,444,497.2969,434,507.2969,285,507.2969,285,471" style="stroke:#181818;stroke-width:0.5;"/><line style="stroke:#181818;stroke-width:0.5;" x1="434" x2="444" y1="471" y2="461"/><line style="stroke:#181818;stroke-width:0.5;" x1="285" x2="434" y1="471" y2="471"/><line style="stroke:#181818;stroke-width:0.5;" x1="434" x2="434" y1="471" y2="507.2969"/><text fill="#000000" font-family="sans-serif" font-size="14" lengthAdjust="spacing" textLength="119" x="300" y="493.9951">Event Producer 2</text></g><!--entity ep3--><g id="elem_ep3"><polygon fill="#F1F1F1" points="554,471,564,461,713,461,713,497.2969,703,507.2969,554,507.2969,554,471" style="stroke:#181818;stroke-width:0.5;"/><line style="stroke:#181818;stroke-width:0.5;" x1="703" x2="713" y1="471" y2="461"/><line style="stroke:#181818;stroke-width:0.5;" x1="554" x2="703" y1="471" y2="471"/><line style="stroke:#181818;stroke-width:0.5;" x1="703" x2="703" y1="471" y2="507.2969"/><text fill="#000000" font-family="sans-serif" font-size="14" lengthAdjust="spacing" textLength="119" x="569" y="493.9951">Event Producer 3</text></g><!--entity rproxy--><g id="elem_rproxy"><polygon fill="#F1F1F1" points="229.5,251,239.5,241,499.5,241,499.5,293.5938,489.5,303.5938,229.5,303.5938,229.5,251" style="stroke:#181818;stroke-width:0.5;"/><line style="stroke:#181818;stroke-width:0.5;" x1="489.5" x2="499.5" y1="251" y2="241"/><line style="stroke:#181818;stroke-width:0.5;" x1="229.5" x2="489.5" y1="251" y2="251"/><line style="stroke:#181818;stroke-width:0.5;" x1="489.5" x2="489.5" y1="251" y2="303.5938"/><text fill="#000000" font-family="sans-serif" font-size="14" font-style="italic" lengthAdjust="spacing" textLength="56" x="331.5" y="273.9951">&#171;nginx&#187;</text><text fill="#000000" font-family="sans-serif" font-size="14" lengthAdjust="spacing" textLength="230" x="244.5" y="290.292">Load-Balancer and Reverse Proxy</text></g><!--entity ec--><g id="elem_ec"><polygon fill="#F1F1F1" points="287,16,297,6,442,6,442,58.5938,432,68.5938,287,68.5938,287,16" style="stroke:#181818;stroke-width:0.5;"/><line style="stroke:#181818;stroke-width:0.5;" x1="432" x2="442" y1="16" y2="6"/><line style="stroke:#181818;stroke-width:0.5;" x1="287" x2="432" y1="16" y2="16"/><line style="stroke:#181818;stroke-width:0.5;" x1="432" x2="432" y1="16" y2="68.5938"/><text fill="#000000" font-family="sans-serif" font-size="14" font-style="italic" lengthAdjust="spacing" textLength="43" x="338" y="38.9951">&#171;curl&#187;</text><text fill="#000000" font-family="sans-serif" font-size="14" lengthAdjust="spacing" textLength="115" x="302" y="55.292">Event Consumer</text></g><!--reverse link rproxy to ep1--><g id="link_rproxy_ep1"><path d="M254.81,306.06 C220.72,320.12 184.93,339.36 157.5,365 C128.93,391.7 111.06,434.58 102.21,460.63 " fill="none" id="rproxy-backto-ep1" style="stroke:#181818;stroke-width:1.0;"/><polygon fill="#181818" points="259.83,304.03,249.986,303.7213,255.1995,305.9165,253.0044,311.13,259.83,304.03" style="stroke:#181818;stroke-width:1.0;"/><path d="M162.5,370 L162.5,395 L351.5,395 L351.5,380 L341.5,370 L162.5,370 " fill="#FEFFDD" style="stroke:#181818;stroke-width:0.5;"/><path d="M341.5,370 L341.5,380 L351.5,380 L341.5,370 " fill="#FEFFDD" style="stroke:#181818;stroke-width:0.5;"/><text fill="#000000" font-family="sans-serif" font-size="13" lengthAdjust="spacing" textLength="168" x="168.5" y="387.0669">ws://localhost:8080/events</text></g><!--reverse link rproxy to ep2--><g id="link_rproxy_ep2"><path d="M364.5,309.58 C364.5,353.11 364.5,424.93 364.5,460.95 " fill="none" id="rproxy-backto-ep2" style="stroke:#181818;stroke-width:1.0;"/><polygon fill="#181818" points="364.5,304.41,360.5,313.41,364.5,309.41,368.5,313.41,364.5,304.41" style="stroke:#181818;stroke-width:1.0;"/><path d="M369.5,370 L369.5,395 L558.5,395 L558.5,380 L548.5,370 L369.5,370 " fill="#FEFFDD" style="stroke:#181818;stroke-width:0.5;"/><path d="M548.5,370 L548.5,380 L558.5,380 L548.5,370 " fill="#FEFFDD" style="stroke:#181818;stroke-width:0.5;"/><text fill="#000000" font-family="sans-serif" font-size="13" lengthAdjust="spacing" textLength="168" x="375.5" y="387.0669">ws://localhost:8081/events</text></g><!--reverse link rproxy to ep3--><g id="link_rproxy_ep3"><path d="M474.19,306.06 C508.28,320.12 544.07,339.36 571.5,365 C600.07,391.7 617.94,434.58 626.79,460.63 " fill="none" id="rproxy-backto-ep3" style="stroke:#181818;stroke-width:1.0;"/><polygon fill="#181818" points="469.17,304.03,475.9956,311.13,473.8005,305.9165,479.014,303.7213,469.17,304.03" style="stroke:#181818;stroke-width:1.0;"/><path d="M604.5,370 L604.5,395 L793.5,395 L793.5,380 L783.5,370 L604.5,370 " fill="#FEFFDD" style="stroke:#181818;stroke-width:0.5;"/><path d="M783.5,370 L783.5,380 L793.5,380 L783.5,370 " fill="#FEFFDD" style="stroke:#181818;stroke-width:0.5;"/><text fill="#000000" font-family="sans-serif" font-size="13" lengthAdjust="spacing" textLength="168" x="610.5" y="387.0669">ws://localhost:8082/events</text></g><!--reverse link ec to rproxy--><g id="link_ec_rproxy"><path d="M364.5,74.57 C364.5,120.17 364.5,197.9 364.5,240.8 " fill="none" id="ec-backto-rproxy" style="stroke:#181818;stroke-width:1.0;"/><polygon fill="#181818" points="364.5,69.44,360.5,78.44,364.5,74.44,368.5,78.44,364.5,69.44" style="stroke:#181818;stroke-width:1.0;"/><path d="M369.5,135 L369.5,175 L545.5,175 L545.5,145 L535.5,135 L369.5,135 " fill="#FEFFDD" style="stroke:#181818;stroke-width:0.5;"/><path d="M535.5,135 L535.5,145 L545.5,145 L535.5,135 " fill="#FEFFDD" style="stroke:#181818;stroke-width:0.5;"/><text fill="#000000" font-family="sans-serif" font-size="13" lengthAdjust="spacing" textLength="155" x="375.5" y="152.0669">Events over Websockets</text><text fill="#000000" font-family="sans-serif" font-size="13" lengthAdjust="spacing" textLength="152" x="375.5" y="167.1997">ws://localhost:80/events</text></g><!--SRC=[bT2n3e8m40RWlKznSIS8B8OO1esRWp4nphLSb53lI0k8RsyhNHGMjYR_Vr-kHrmYh0uzKWidmsMdq42o0ca1cqJGN9o6E9sFin1d8kH7bcMqargIZoMLSCOUZKK_Cxo_TTFu9sotTAzeA0hnO- -PRFT4CyhArLHdj6-v9I6ABb4H13VM8Z21hgWMBvl7iMObzODjcs_MctMCNhG2tHg-wuHqaP3C2DaY8Pq8uVSZWkeN-9x00hkJmHLlbbMDRdZY_giV]--></g></svg>